{
	"asset":{
		"generator":"Khronos glTF Blender I/O v3.6.27",
		"version":"2.0"
	},
	"scene":0,
	"scenes":[
		{
			"name":"Scene",
			"nodes":[
				0
			]
		}
	],
	"nodes":[
		{
			"mesh":0,
			"name":"Cube"
		}
	],
	"materials":[
		{
			"doubleSided":true,
			"name":"Material.006",
			"pbrMetallicRoughness":{
				"baseColorFactor":[
					0.800000011920929,
					0.800000011920929,
					0.800000011920929,
					1
				],
				"metallicFactor":0,
				"roughnessFactor":0.5
			}
		},
		{
			"doubleSided":true,
			"name":"Material.002",
			"pbrMetallicRoughness":{
				"baseColorFactor":[
					0,
					0,
					1,
					1
				],
				"metallicFactor":0,
				"roughnessFactor":0.5
			}
		},
		{
			"doubleSided":true,
			"name":"Material",
			"pbrMetallicRoughness":{
				"baseColorFactor":[
					0.800000011920929,
					0.800000011920929,
					0.800000011920929,
					1
				],
				"metallicFactor":0,
				"roughnessFactor":0.5
			}
		}
	],
	"meshes":[
		{
			"name":"Cube",
			"primitives":[
				{
					"attributes":{
						"POSITION":0,
						"NORMAL":1,
						"TEXCOORD_0":2
					},
					"indices":3,
					"material":0
				},
				{
					"attributes":{
						"POSITION":4,
						"NORMAL":5,
						"TEXCOORD_0":6
					},
					"indices":7,
					"material":1
				},
				{
					"attributes":{
						"POSITION":8,
						"NORMAL":9,
						"TEXCOORD_0":10
					},
					"indices":11,
					"material":2
				}
			]
		}
	],
	"accessors":[
		{
			"bufferView":0,
			"componentType":5126,
			"count":104,
			"max":[
				0.8010914921760559,
				1.7930517196655273,
				1.998180866241455
			],
			"min":[
				-0.8010914921760559,
				-1.7851762771606445,
				-1.998180866241455
			],
			"type":"VEC3"
		},
		{
			"bufferView":1,
			"componentType":5126,
			"count":104,
			"type":"VEC3"
		},
		{
			"bufferView":2,
			"componentType":5126,
			"count":104,
			"type":"VEC2"
		},
		{
			"bufferView":3,
			"componentType":5123,
			"count":252,
			"type":"SCALAR"
		},
		{
			"bufferView":4,
			"componentType":5126,
			"count":152,
			"max":[
				1.0117136240005493,
				1.9930517673492432,
				2.200927257537842
			],
			"min":[
				-1.0117136240005493,
				-1.9851763248443604,
				-2.200927257537842
			],
			"type":"VEC3"
		},
		{
			"bufferView":5,
			"componentType":5126,
			"count":152,
			"type":"VEC3"
		},
		{
			"bufferView":6,
			"componentType":5126,
			"count":152,
			"type":"VEC2"
		},
		{
			"bufferView":7,
			"componentType":5123,
			"count":228,
			"type":"SCALAR"
		},
		{
			"bufferView":8,
			"componentType":5126,
			"count":64,
			"max":[
				1.0117136240005493,
				1.9930517673492432,
				2.200927257537842
			],
			"min":[
				-1.0117136240005493,
				-1.9851763248443604,
				-2.200927257537842
			],
			"type":"VEC3"
		},
		{
			"bufferView":9,
			"componentType":5126,
			"count":64,
			"type":"VEC3"
		},
		{
			"bufferView":10,
			"componentType":5126,
			"count":64,
			"type":"VEC2"
		},
		{
			"bufferView":11,
			"componentType":5123,
			"count":96,
			"type":"SCALAR"
		}
	],
	"bufferViews":[
		{
			"buffer":0,
			"byteLength":1248,
			"byteOffset":0,
			"target":34962
		},
		{
			"buffer":0,
			"byteLength":1248,
			"byteOffset":1248,
			"target":34962
		},
		{
			"buffer":0,
			"byteLength":832,
			"byteOffset":2496,
			"target":34962
		},
		{
			"buffer":0,
			"byteLength":504,
			"byteOffset":3328,
			"target":34963
		},
		{
			"buffer":0,
			"byteLength":1824,
			"byteOffset":3832,
			"target":34962
		},
		{
			"buffer":0,
			"byteLength":1824,
			"byteOffset":5656,
			"target":34962
		},
		{
			"buffer":0,
			"byteLength":1216,
			"byteOffset":7480,
			"target":34962
		},
		{
			"buffer":0,
			"byteLength":456,
			"byteOffset":8696,
			"target":34963
		},
		{
			"buffer":0,
			"byteLength":768,
			"byteOffset":9152,
			"target":34962
		},
		{
			"buffer":0,
			"byteLength":768,
			"byteOffset":9920,
			"target":34962
		},
		{
			"buffer":0,
			"byteLength":512,
			"byteOffset":10688,
			"target":34962
		},
		{
			"buffer":0,
			"byteLength":192,
			"byteOffset":11200,
			"target":34963
		}
	],
	"buffers":[
		{
			"byteLength":11392,
			"uri":"data:application/octet-stream;base64,"
		}
	]
}
